<svg width="32" height="32" viewBox="0 0 32 32" fill="currentColor" xmlns="http://www.w3.org/2000/svg">
<path d="M6.66667 29.3333C5.93334 29.3333 5.30534 29.072 4.78267 28.5493C4.26 28.0267 3.99911 27.3991 4 26.6667V8C4 7.26666 4.26134 6.63866 4.784 6.116C5.30667 5.59333 5.93422 5.33244 6.66667 5.33333H8V4C8 3.62222 8.128 3.30533 8.384 3.04933C8.64 2.79333 8.95645 2.66578 9.33334 2.66666C9.71111 2.66666 10.028 2.79467 10.284 3.05067C10.54 3.30667 10.6676 3.62311 10.6667 4V5.33333H21.3333V4C21.3333 3.62222 21.4613 3.30533 21.7173 3.04933C21.9733 2.79333 22.2898 2.66578 22.6667 2.66666C23.0444 2.66666 23.3613 2.79467 23.6173 3.05067C23.8733 3.30667 24.0009 3.62311 24 4V5.33333H25.3333C26.0667 5.33333 26.6947 5.59466 27.2173 6.11733C27.74 6.64 28.0009 7.26755 28 8V26.6667C28 27.4 27.7387 28.028 27.216 28.5507C26.6933 29.0733 26.0658 29.3342 25.3333 29.3333H6.66667ZM6.66667 26.6667H25.3333V13.3333H6.66667V26.6667ZM16 18.6667C15.6222 18.6667 15.3053 18.5387 15.0493 18.2827C14.7933 18.0267 14.6658 17.7102 14.6667 17.3333C14.6667 16.9556 14.7947 16.6387 15.0507 16.3827C15.3067 16.1267 15.6231 15.9991 16 16C16.3778 16 16.6947 16.128 16.9507 16.384C17.2067 16.64 17.3342 16.9564 17.3333 17.3333C17.3333 17.7111 17.2053 18.028 16.9493 18.284C16.6933 18.54 16.3769 18.6676 16 18.6667ZM10.6667 18.6667C10.2889 18.6667 9.972 18.5387 9.716 18.2827C9.46 18.0267 9.33245 17.7102 9.33334 17.3333C9.33334 16.9556 9.46134 16.6387 9.71734 16.3827C9.97334 16.1267 10.2898 15.9991 10.6667 16C11.0444 16 11.3613 16.128 11.6173 16.384C11.8733 16.64 12.0009 16.9564 12 17.3333C12 17.7111 11.872 18.028 11.616 18.284C11.36 18.54 11.0436 18.6676 10.6667 18.6667ZM21.3333 18.6667C20.9556 18.6667 20.6387 18.5387 20.3827 18.2827C20.1267 18.0267 19.9991 17.7102 20 17.3333C20 16.9556 20.128 16.6387 20.384 16.3827C20.64 16.1267 20.9564 15.9991 21.3333 16C21.7111 16 22.028 16.128 22.284 16.384C22.54 16.64 22.6676 16.9564 22.6667 17.3333C22.6667 17.7111 22.5387 18.028 22.2827 18.284C22.0267 18.54 21.7102 18.6676 21.3333 18.6667ZM16 24C15.6222 24 15.3053 23.872 15.0493 23.616C14.7933 23.36 14.6658 23.0436 14.6667 22.6667C14.6667 22.2889 14.7947 21.972 15.0507 21.716C15.3067 21.46 15.6231 21.3324 16 21.3333C16.3778 21.3333 16.6947 21.4613 16.9507 21.7173C17.2067 21.9733 17.3342 22.2898 17.3333 22.6667C17.3333 23.0444 17.2053 23.3613 16.9493 23.6173C16.6933 23.8733 16.3769 24.0009 16 24ZM10.6667 24C10.2889 24 9.972 23.872 9.716 23.616C9.46 23.36 9.33245 23.0436 9.33334 22.6667C9.33334 22.2889 9.46134 21.972 9.71734 21.716C9.97334 21.46 10.2898 21.3324 10.6667 21.3333C11.0444 21.3333 11.3613 21.4613 11.6173 21.7173C11.8733 21.9733 12.0009 22.2898 12 22.6667C12 23.0444 11.872 23.3613 11.616 23.6173C11.36 23.8733 11.0436 24.0009 10.6667 24ZM21.3333 24C20.9556 24 20.6387 23.872 20.3827 23.616C20.1267 23.36 19.9991 23.0436 20 22.6667C20 22.2889 20.128 21.972 20.384 21.716C20.64 21.46 20.9564 21.3324 21.3333 21.3333C21.7111 21.3333 22.028 21.4613 22.284 21.7173C22.54 21.9733 22.6676 22.2898 22.6667 22.6667C22.6667 23.0444 22.5387 23.3613 22.2827 23.6173C22.0267 23.8733 21.7102 24.0009 21.3333 24Z" fill="currentColor"/>
</svg>
