<svg width="32" height="32" viewBox="0 0 32 32" fill="currentColor" xmlns="http://www.w3.org/2000/svg">
<path d="M6.66667 28C5.93334 28 5.30534 27.7387 4.78267 27.216C4.26 26.6933 3.99911 26.0658 4 25.3333V6.66667C4 5.93333 4.26134 5.30533 4.784 4.78266C5.30667 4.26 5.93422 3.99911 6.66667 4H16V6.66667H6.66667V25.3333H25.3333V16H28V25.3333C28 26.0667 27.7387 26.6947 27.216 27.2173C26.6933 27.74 26.0658 28.0009 25.3333 28H6.66667ZM12.9333 20.9333L11.0667 19.0667L23.4667 6.66667H18.6667V4H28V13.3333H25.3333V8.53333L12.9333 20.9333Z" fill="currentColor"/>
</svg>
